HIERARCHY
ROOT Hips
{
  OFFSET 0 0 0
  CHANNELS 6 Xposition Yposition Zposition Zrotation Xrotation Yrotation
  JOINT Spine
  {
    OFFSET 0.00000000 0.00000000 0.00000000
    CHANNELS 3 Zrotation Xrotation Yrotation
    JOINT Spine1
    {
      OFFSET 0.19000000 0.00000000 0.00000000
      CHANNELS 3 Zrotation Xrotation Yrotation
      JOINT Neck
      {
        OFFSET 0.22500000 0.00600000 0.00000000
        CHANNELS 3 Zrotation Xrotation Yrotation
        JOINT Head
        {
          OFFSET 0.14000000 0.00030878 0.00000000
          CHANNELS 3 Zrotation Xrotation Yrotation
          End Site
          {
            OFFSET 0.17000000 0.00000000 0.00000000
          }
        }
      }
      JOINT LeftShoulder
      {
        OFFSET 0.19800000 0.03700000 0.04300000
        CHANNELS 3 Zrotation Xrotation Yrotation
        JOINT LeftArm
        {
          OFFSET 0.08000000 0.00000000 0.00000000
          CHANNELS 3 Zrotation Xrotation Yrotation
          JOINT LeftForeArm
          {
            OFFSET 0.15200000 0.00000000 0.00000000
            CHANNELS 3 Zrotation Xrotation Yrotation
            JOINT LeftHand
            {
              OFFSET 0.17800000 0.00000000 0.00000000
              CHANNELS 3 Zrotation Xrotation Yrotation
              End Site
              {
                OFFSET 0.07200000 0.00000000 0.00000000
              }
            }
          }
        }
      }
      JOINT RightShoulder
      {
        OFFSET 0.19800000 0.03700000 -0.04300000
        CHANNELS 3 Zrotation Xrotation Yrotation
        JOINT RightArm
        {
          OFFSET 0.08000000 0.00000000 0.00151654
          CHANNELS 3 Zrotation Xrotation Yrotation
          JOINT RightForeArm
          {
            OFFSET 0.15200000 0.00000000 0.00000000
            CHANNELS 3 Zrotation Xrotation Yrotation
            JOINT RightHand
            {
              OFFSET 0.17800000 0.00000000 0.00000000
              CHANNELS 3 Zrotation Xrotation Yrotation
              End Site
              {
                OFFSET 0.07200000 0.00000000 0.00000000
              }
            }
          }
        }
      }
    }
  }
  JOINT LeftUpLeg
  {
    OFFSET 0.05984250 -0.07666000 0.04788790
    CHANNELS 3 Zrotation Xrotation Yrotation
    JOINT LeftLeg
    {
      OFFSET 0.16000000 0.00000000 0.00000000
      CHANNELS 3 Zrotation Xrotation Yrotation
      JOINT LeftFoot
      {
        OFFSET 0.18000000 0.00000000 0.00000000
        CHANNELS 3 Zrotation Xrotation Yrotation
        End Site
        {
          OFFSET 0.00000000 -0.10800000 0.00000000
        }
      }
    }
  }
  JOINT RightUpLeg
  {
    OFFSET 0.05984250 -0.07665980 -0.04788790
    CHANNELS 3 Zrotation Xrotation Yrotation
    JOINT RightLeg
    {
      OFFSET 0.16000000 0.00000000 0.00000000
      CHANNELS 3 Zrotation Xrotation Yrotation
      JOINT RightFoot
      {
        OFFSET 0.18000000 0.00000000 0.00000000
        CHANNELS 3 Zrotation Xrotation Yrotation
        End Site
        {
          OFFSET 0.00000000 -0.10800000 0.00000000
        }
      }
    }
  }
  JOINT Tail
  {
    OFFSET 0.06836960 -0.00722574 0.00000000
    CHANNELS 3 Zrotation Xrotation Yrotation
    JOINT Tail1
    {
      OFFSET 0.12000000 0.00000000 0.00000000
      CHANNELS 3 Zrotation Xrotation Yrotation
      End Site
      {
        OFFSET 0.12000000 0.00000000 0.00000000
      }
    }
  }
}
MOTION
Frames:	10
Frame Time:	0.0166667
-3.2816984 0.4681420 0.0241738 -1.45949 -7.38962 -171.671 -176.676 0.205244 -12.7253 -8.01041 -3.10553 18.7946 -14.0778 0.678299 2.84022 123.47 88.7075 -107.672 -109.932 -35.4814 -139.074 128.14 -31.0469 -119.725 -47.5869 14.5169 -9.75138 -17.2378 4.03245 -18.1608 76.3359 -28.063 43.5938 25.8207 -45.0293 -49.5243 -47.1081 -19.7928 -0.565914 -16.6045 0.700546 3.00081 -126.66 -1.87478 -19.9828 79.4266 8.5159 8.4665 50.6785 -2.88009 -5.79185 -120.212 -4.64679 -6.71212 73.9333 -6.4057 0.662942 64.5065 1.07082 -2.03466 -59.4983 58.5047 -2.07518 -9.55224 -70.5038 -8.7464 
-3.2815831 0.4684160 0.0241722 -1.33075 -7.10581 -171.777 -176.541 0.1533 -12.4708 -7.91722 -3.02599 18.2893 -14.0918 0.857175 2.42634 104.236 88.1536 -88.5649 -109.786 -35.2814 -139.078 128.513 -30.9925 -119.828 -47.6655 14.3747 -9.49693 -17.246 4.02612 -18.1044 76.3635 -28.098 43.7898 25.6333 -44.9193 -49.7562 -46.7872 -19.8602 -0.576853 -16.6114 0.792296 2.75107 -126.363 -2.12083 -19.7537 79.2657 8.49054 8.47895 50.8195 -2.89262 -5.80046 -120.06 -4.7106 -6.27819 74.0461 -6.27768 0.588353 64.5605 1.05591 -2.05558 -59.2334 58.6863 -2.35406 -9.49255 -69.9952 -8.68558 
-3.2815543 0.4685060 0.0242169 -1.31369 -6.91933 -171.942 -176.626 0.129743 -12.3944 -7.73764 -2.94797 17.9441 -14.164 0.924568 1.93835 99.8535 88.0172 -84.1158 -109.814 -35.3041 -139.11 128.774 -30.9536 -119.776 -47.5265 14.2502 -9.42045 -17.2975 4.05496 -18.1529 76.3756 -28.13 43.9183 25.6635 -44.8075 -49.8523 -46.663 -19.9497 -0.531128 -16.7308 0.782822 2.81283 -126.25 -2.31102 -19.5951 79.2235 8.45635 8.4909 50.8154 -2.89625 -5.79535 -120.027 -4.8681 -6.14297 74.1299 -6.20852 0.621524 64.4372 1.03767 -2.06321 -58.9047 58.5624 -2.62465 -8.92058 -69.2187 -8.16736 
-3.2814588 0.4685980 0.0240875 -1.32169 -6.80427 -172.058 -176.717 0.144239 -12.2348 -7.59284 -2.84723 17.5927 -14.2904 1.01758 1.40052 99.6655 88.0582 -83.7917 -109.808 -35.2798 -139.143 129.003 -30.8526 -119.823 -47.2626 14.3454 -9.32919 -17.5539 4.07602 -18.1339 76.3046 -28.2178 43.8756 26.0812 -44.7321 -49.6929 -46.7402 -20.0032 -0.469561 -16.6585 0.805332 2.74851 -126.205 -2.44245 -19.4265 79.2196 8.3852 8.46528 50.9075 -2.89585 -5.78873 -120.008 -4.99388 -6.05537 74.1503 -6.27408 0.64187 64.3559 1.03995 -2.05506 -58.6358 58.5211 -2.93788 -8.62278 -68.6247 -7.91607 
-3.2813864 0.4686390 0.0239570 -1.28861 -6.71423 -172.168 -176.576 0.122014 -12.07 -7.77892 -2.80515 17.2123 -14.1464 1.05122 0.973133 100.892 88.2194 -85.2159 -109.747 -35.1905 -139.157 129.227 -30.9818 -119.859 -47.1456 14.345 -9.28949 -17.5828 4.07972 -18.1288 76.3456 -28.1611 43.8847 26.1843 -44.8887 -49.5616 -46.8016 -19.9915 -0.493952 -16.5915 0.797296 2.80051 -126.122 -2.56001 -19.3395 79.1941 8.40439 8.46047 51.0925 -2.89405 -5.79132 -120.006 -5.07827 -5.98238 74.2062 -6.16199 0.661039 64.4052 1.02064 -2.07448 -58.2656 58.4852 -3.34961 -8.28719 -68.0128 -7.63307 
-3.2813430 0.4686050 0.0237326 -1.27154 -6.68707 -172.303 -176.586 0.138567 -11.9246 -7.76484 -2.71891 16.8851 -14.1785 1.05931 0.480251 109.811 88.6466 -93.9223 -109.683 -35.1494 -139.066 129.582 -31.1318 -119.845 -46.986 14.3682 -9.24745 -17.6046 4.10338 -18.1886 76.3141 -28.2283 43.9386 26.1073 -45.0423 -49.647 -46.8234 -19.8673 -0.51706 -16.4651 0.754265 2.93967 -126.02 -2.63752 -19.2502 79.1274 8.42078 8.42979 51.134 -2.8905 -5.78237 -120.021 -5.18192 -5.98045 74.2675 -6.10219 0.709547 64.4397 1.00695 -2.08895 -57.9198 58.3571 -3.71824 -8.05623 -67.4124 -7.46308 
-3.2812815 0.4684830 0.0232447 -1.26710 -6.76545 -172.445 -176.598 0.15714 -11.7115 -7.83461 -2.61759 16.4268 -14.1073 1.18586 0.052352 124.725 88.8963 -108.886 -109.641 -35.1013 -139.048 129.618 -31.2788 -119.892 -47.022 14.3327 -9.30235 -17.539 4.11518 -18.2112 76.2536 -28.3353 43.9847 26.0995 -45.0906 -49.9045 -46.7276 -20.0148 -0.512782 -16.4969 0.800051 2.84162 -126.039 -2.65833 -19.2787 79.2507 8.29312 8.41909 51.0365 -2.86562 -5.75534 -120.015 -5.20136 -5.95274 74.2796 -6.31279 0.717691 64.4072 1.03547 -2.06577 -57.6262 58.1778 -4.06163 -7.85361 -66.8849 -7.37503 
-3.2812064 0.4684920 0.0227748 -1.22600 -6.86877 -172.570 -176.417 0.170313 -11.3789 -8.15512 -2.49445 15.7466 -13.9259 1.22465 -0.191776 146.978 89.0696 -131.332 -109.657 -35.075 -139.145 129.525 -31.4303 -119.997 -46.9901 14.4376 -9.37231 -17.5993 4.09662 -18.1104 76.3504 -28.226 44.0701 24.9593 -45.8334 -50.1309 -46.758 -19.8003 -0.786182 -16.1602 0.696994 3.29531 -125.984 -2.66134 -19.3312 79.3253 8.241 8.41386 51.0197 -2.85775 -5.74714 -120.015 -5.30159 -6.13969 74.2941 -6.32769 0.817435 64.4647 1.03175 -2.07447 -57.2804 57.9339 -4.36731 -7.70997 -66.4435 -7.2954 
-3.2811079 0.4684180 0.0224053 -1.21588 -6.97415 -172.674 -176.359 0.202006 -11.0628 -8.26708 -2.37888 15.2458 -13.9962 1.24926 -0.377954 143.264 89.0678 -127.177 -109.593 -35.0645 -138.989 129.678 -31.5589 -119.931 -46.9036 14.337 -9.35633 -17.5953 4.09704 -18.0571 76.2995 -28.2535 43.9481 25.1021 -45.9179 -50.1014 -46.8348 -19.8183 -0.771148 -15.9817 0.714823 3.26365 -125.94 -2.67475 -19.3802 79.3571 8.29232 8.39788 50.9491 -2.85587 -5.74379 -120.058 -5.31999 -6.19857 74.3151 -6.27055 0.840496 64.5195 1.01898 -2.08684 -57 57.7778 -4.69858 -7.56517 -66.0915 -7.21458 
-3.2810546 0.4682750 0.0219764 -1.23645 -7.09097 -172.887 -176.298 0.17269 -10.8899 -8.47627 -2.30079 14.6769 -13.9023 1.22276 -0.512987 176.481 89.0803 -160.304 -109.602 -35.0349 -139.075 129.342 -31.5852 -120.147 -46.969 14.5079 -9.34898 -17.7724 4.06737 -17.8927 76.3706 -28.12 43.8735 25.1564 -46.041 -50.0889 -46.8999 -19.7495 -0.769582 -15.855 0.67862 3.38821 -125.903 -2.69961 -19.4196 79.4238 8.21218 8.41773 50.8548 -2.84451 -5.73446 -120.131 -5.385 -6.32867 74.3085 -6.26358 0.910771 64.6527 1.01356 -2.09758 -57.071 57.5172 -4.63285 -7.54101 -65.9431 -7.26985 
